<?xml version="1.0" encoding="UTF-8" standalone="no"?>
<svg
   xmlns:dc="http://purl.org/dc/elements/1.1/"
   xmlns:cc="http://creativecommons.org/ns#"
   xmlns:rdf="http://www.w3.org/1999/02/22-rdf-syntax-ns#"
   xmlns:svg="http://www.w3.org/2000/svg"
   xmlns="http://www.w3.org/2000/svg"
   xmlns:sodipodi="http://sodipodi.sourceforge.net/DTD/sodipodi-0.dtd"
   xmlns:inkscape="http://www.inkscape.org/namespaces/inkscape"
   version="1.1"
   viewBox="0 0 52.000001 52"
   id="svg1957"
   sodipodi:docname="logo_70x70_v2.svg"
   inkscape:version="1.0.1 (3bc2e813f5, 2020-09-07)"
   width="52"
   height="52">
  <metadata
     id="metadata1963">
    <rdf:RDF>
      <cc:Work
         rdf:about="">
        <dc:format>image/svg+xml</dc:format>
        <dc:type
           rdf:resource="http://purl.org/dc/dcmitype/StillImage" />
        <dc:title></dc:title>
      </cc:Work>
    </rdf:RDF>
  </metadata>
  <defs
     id="defs1961" />
  <sodipodi:namedview
     pagecolor="#ffffff"
     bordercolor="#666666"
     borderopacity="1"
     objecttolerance="10"
     gridtolerance="10"
     guidetolerance="10"
     inkscape:pageopacity="0"
     inkscape:pageshadow="2"
     inkscape:window-width="1280"
     inkscape:window-height="961"
     id="namedview1959"
     showgrid="false"
     inkscape:zoom="5.3306056"
     inkscape:cx="34.251977"
     inkscape:cy="9.9152035"
     inkscape:window-x="-8"
     inkscape:window-y="-8"
     inkscape:window-maximized="1"
     inkscape:current-layer="svg1957"
     inkscape:document-rotation="0" />
  <style
     id="style1917" />
  <g
     id="logo"
     transform="matrix(3.6922093,0,0,3.1303389,-5.0085375,-3.4236166)">
    <g
       id="letters"
       fill="#000000">
      <path
         d="M 5.6683331,3.2822044 5.5459899,3.3443906 5.3170311,2.8939459 4.8579352,3.1273022 5.0868939,3.5777469 4.9645507,3.6399331 4.4968896,2.7198873 4.6192328,2.6577011 4.8026499,3.0185569 5.2617459,2.7852006 5.0783288,2.4243448 5.200672,2.3621586 Z"
         id="name_h"
         style="stroke-width:0.0380228" />
      <path
         d="m 6.53706,2.5422416 q 0.03468,0.1067981 0.036852,0.1942672 0.00262,0.086602 -0.033657,0.156687 -0.034492,0.066587 -0.0949,0.1117101 -0.06041,0.045124 -0.1507231,0.074453 -0.092293,0.029971 -0.168773,0.027844 Q 6.0493758,3.1050746 5.9871566,3.0728088 5.9162041,3.0360909 5.8676373,2.9673257 5.8197301,2.8983463 5.7835511,2.7869409 L 5.5928049,2.199555 5.7233352,2.1571678 5.9162228,2.7511499 q 0.025904,0.079769 0.051437,0.1224898 0.026193,0.042508 0.064106,0.071736 0.042922,0.033431 0.09943,0.039131 0.057168,0.00549 0.1270468,-0.017208 0.070539,-0.022906 0.1131314,-0.060058 0.042379,-0.037812 0.057915,-0.090954 0.013507,-0.045925 0.00843,-0.097476 Q 6.433089,2.6663867 6.40975,2.5945303 L 6.2157978,1.9972573 6.3463281,1.9548701 Z"
         id="name_u"
         style="stroke-width:0.0380228" />
      <path
         d="M 7.8297315,2.7363938 7.693973,2.7565031 7.5636668,1.8768111 7.3684655,2.5174272 7.2875582,2.5294112 6.9170882,1.972578 7.0473944,2.85227 6.9205487,2.8710587 6.7693227,1.8501285 6.9544499,1.8227057 7.3108507,2.3507969 7.4899421,1.7433922 7.6784896,1.7154621 Z"
         id="name_m"
         style="stroke-width:0.0380228" />
      <path
         d="m 8.8918921,2.4208066 q -0.00115,0.076929 -0.031051,0.1354237 -0.029951,0.058494 -0.079703,0.095909 -0.058871,0.044909 -0.1291479,0.063314 -0.069584,0.018415 -0.1770076,0.016879 l -0.3659431,-0.00523 0.014759,-1.0319671 0.3056424,0.00437 q 0.112969,0.00162 0.1689886,0.010735 0.056018,0.00912 0.1069289,0.036189 0.056405,0.030615 0.081374,0.078109 0.02498,0.046802 0.024047,0.1119501 -0.00105,0.073465 -0.03922,0.1249084 -0.038159,0.050751 -0.1009807,0.081047 l -7.93e-5,0.00554 q 0.1043449,0.022982 0.1636285,0.094537 0.059295,0.070862 0.057759,0.1782866 z M 8.6677476,1.9524557 q 5.317e-4,-0.037425 -0.011573,-0.063247 -0.012109,-0.025822 -0.039604,-0.042159 -0.032306,-0.019178 -0.078681,-0.024001 -0.046367,-0.00552 -0.1149795,-0.0065 l -0.1635563,-0.00234 -0.00426,0.2980114 0.1774244,0.00254 q 0.064455,9.198e-4 0.1026621,-0.00477 0.038218,-0.00639 0.071089,-0.026711 0.032871,-0.020326 0.046505,-0.052711 0.014337,-0.033069 0.014982,-0.078118 z m 0.081288,0.4718431 q 8.91e-4,-0.062376 -0.017295,-0.099375 -0.018188,-0.037 -0.067028,-0.063347 -0.033019,-0.017803 -0.080771,-0.023337 -0.047049,-0.00622 -0.1149694,-0.00719 l -0.2155363,-0.00308 -0.00549,0.38395 0.1815776,0.0026 q 0.090098,0.00129 0.1477483,-0.0069 0.057662,-0.00888 0.094752,-0.033305 0.039198,-0.026474 0.057714,-0.06087 0.018516,-0.034396 0.019299,-0.089148 z"
         id="name_b"
         style="stroke-width:0.0380228" />
      <path
         d="M 9.752715,2.8661639 9.0806552,2.7628019 9.2375434,1.7427196 9.9096032,1.8460816 9.8910592,1.9666557 9.3546472,1.8841547 9.3116592,2.1636706 9.8480711,2.2461716 9.8295271,2.3667457 9.2931151,2.2842447 9.2348491,2.663093 9.7712611,2.745594 Z"
         id="name_e"
         style="stroke-width:0.0380228" />
      <path
         d="m 10.784553,3.1593323 -0.170771,-0.050679 -0.214171,-0.4915888 -0.185386,-0.055018 -0.11674,0.3933773 -0.131569,-0.039045 0.293628,-0.989429 0.277087,0.082231 q 0.08971,0.026621 0.145967,0.05633 0.05645,0.029044 0.09542,0.073144 0.04377,0.049862 0.05829,0.1105662 0.01538,0.060237 -0.0081,0.139311 -0.03175,0.1069835 -0.107067,0.1634414 -0.07512,0.055793 -0.180327,0.064338 z m -0.09666,-0.8023042 q 0.01262,-0.042527 0.007,-0.079623 -0.0048,-0.037563 -0.03261,-0.070409 -0.02285,-0.02775 -0.05989,-0.046694 -0.03684,-0.019608 -0.09,-0.035384 l -0.154833,-0.045947 -0.110825,0.3734448 0.132898,0.03944 q 0.06246,0.018536 0.112132,0.021709 0.04986,0.00251 0.0913,-0.017732 0.03818,-0.019034 0.06279,-0.050776 0.02547,-0.032208 0.04203,-0.088025 z"
         id="name_r"
         style="stroke-width:0.0380228" />
      <path
         d="M 11.909802,2.6757482 11.573147,2.5252694 11.201772,3.3561288 11.076477,3.3001264 11.447852,2.4692671 11.111197,2.3187883 11.160977,2.207416 11.959573,2.5643629 Z"
         id="name_t"
         style="stroke-width:0.0380228" />
      <path
         d="m 12.769188,3.1997148 q 0.0161,0.092322 -0.0097,0.1950001 -0.02519,0.103053 -0.09354,0.210722 -0.06835,0.1076718 -0.151844,0.1745358 -0.08254,0.066648 -0.170656,0.090348 -0.09136,0.024926 -0.184035,0.00796 -0.09209,-0.016591 -0.186305,-0.076401 -0.09187,-0.058323 -0.14805,-0.1366739 -0.05559,-0.07798 -0.07147,-0.1693479 -0.01589,-0.091366 0.0089,-0.193836 0.02541,-0.1020974 0.09413,-0.2103484 0.06761,-0.106502 0.1492,-0.1729406 0.08196,-0.067019 0.174061,-0.093115 0.0879,-0.024656 0.183288,-0.00679 0.09597,0.018235 0.18609,0.075445 0.09363,0.059438 0.148251,0.137631 0.05558,0.07798 0.07163,0.1678102 z m -0.223771,0.3292109 q 0.107731,-0.1697071 0.08998,-0.3098675 -0.01738,-0.140751 -0.149041,-0.2243313 -0.132836,-0.084328 -0.267603,-0.040163 -0.133811,0.043951 -0.241548,0.2136536 -0.108846,0.1714604 -0.08955,0.3117789 0.01966,0.1397378 0.149573,0.2222044 0.12991,0.082469 0.264154,0.040433 0.135195,-0.042251 0.244048,-0.2137112 z"
         id="name_o"
         style="stroke-width:0.0380228" />
      <path
         d="m 6.2977829,17.222506 -0.1688736,-0.05671 -0.1965809,-0.498875 -0.1833165,-0.06157 -0.1306338,0.38898 -0.1300993,-0.04369 0.3285642,-0.978378 0.2739975,0.09202 q 0.088705,0.02979 0.1438681,0.06148 0.055384,0.03103 0.092765,0.07649 0.041969,0.05138 0.054325,0.112565 0.013234,0.06074 -0.013024,0.138936 -0.035527,0.105788 -0.1128023,0.159533 -0.077054,0.05309 -0.1824973,0.05789 z M 6.2296701,16.41727 q 0.014122,-0.04205 0.00982,-0.07932 -0.00342,-0.03771 -0.030087,-0.07152 -0.021856,-0.02854 -0.058194,-0.04879 -0.036119,-0.0209 -0.088685,-0.03856 l -0.1530942,-0.05142 -0.1240131,0.369278 0.1314141,0.04413 q 0.061765,0.02074 0.1112905,0.02567 0.049747,0.0043 0.091872,-0.01448 0.038836,-0.01767 0.06455,-0.04851 0.026592,-0.03128 0.045128,-0.08648 z"
         style="font-variant-ligatures:normal;font-variant-caps:normal;font-variant-numeric:normal;font-variant-east-asian:normal;stroke-width:0.0380228"
         id="surname_r" />
      <path
         d="m 7.4591034,16.515452 q 0.049772,0.07941 0.064678,0.184222 0.015588,0.104937 -0.00705,0.230454 -0.022634,0.125512 -0.0747,0.218956 -0.051261,0.09288 -0.1239025,0.148108 -0.07518,0.05758 -0.1674078,0.07687 -0.09154,0.01941 -0.2013664,-4.31e-4 -0.1070941,-0.01931 -0.1886912,-0.07065 -0.080916,-0.05122 -0.1301295,-0.129818 -0.049213,-0.0786 -0.064925,-0.182856 -0.015029,-0.104133 0.00773,-0.230324 0.022387,-0.124148 0.072844,-0.216471 0.050579,-0.093 0.1260049,-0.151944 0.072082,-0.05602 0.1671491,-0.0755 0.095755,-0.01936 0.200806,-4.31e-4 0.1091406,0.01968 0.1892517,0.07146 0.080916,0.05122 0.129694,0.12833 z m -0.082886,0.389325 q 0.035673,-0.197817 -0.033691,-0.320904 -0.069241,-0.123769 -0.2227217,-0.151442 -0.1548475,-0.02792 -0.2629606,0.06386 -0.1073068,0.09123 -0.1429799,0.289044 -0.036042,0.199872 0.034809,0.322514 0.070975,0.121968 0.2224056,0.149271 0.1514301,0.0273 0.2598564,-0.06231 0.1092311,-0.09017 0.1452765,-0.290035 z"
         style="font-variant-ligatures:normal;font-variant-caps:normal;font-variant-numeric:normal;font-variant-east-asian:normal;stroke-width:0.0380228"
         id="surname_o" />
      <path
         d="m 8.545551,17.172207 q -0.0025,0.0769 -0.033513,0.134836 -0.031011,0.05794 -0.081438,0.09444 -0.05968,0.04383 -0.1302803,0.06095 -0.069908,0.01714 -0.1772806,0.01365 l -0.3657851,-0.0119 0.033558,-1.031522 0.3055131,0.0099 q 0.1129216,0.0037 0.1687587,0.01381 0.055844,0.01013 0.106252,0.03813 0.055837,0.03164 0.079937,0.07958 0.024123,0.04725 0.022005,0.112369 -0.00239,0.07343 -0.041489,0.124174 -0.039078,0.05005 -0.1024408,0.07919 l -1.868e-4,0.0055 q 0.1039095,0.02488 0.1618749,0.0975 0.057994,0.07193 0.054501,0.179307 z M 8.329986,16.699861 q 0.00122,-0.03741 -0.010419,-0.06345 -0.011636,-0.02604 -0.038828,-0.04287 -0.031951,-0.01976 -0.078231,-0.02543 -0.046257,-0.0064 -0.1148415,-0.0086 l -0.1634989,-0.0053 -0.00969,0.297882 0.1773525,0.0058 q 0.064428,0.0021 0.1027325,-0.0029 0.038328,-0.0057 0.071563,-0.02541 0.033236,-0.01972 0.047457,-0.05185 0.014937,-0.0328 0.016402,-0.07783 z m 0.072679,0.473251 q 0.00203,-0.06235 -0.015482,-0.09967 -0.01751,-0.03732 -0.065862,-0.06456 -0.03269,-0.0184 -0.080333,-0.0248 -0.046927,-0.0071 -0.1148185,-0.0093 l -0.21545,-0.007 -0.012486,0.383791 0.1815058,0.0059 q 0.09006,0.0029 0.1478488,-0.0042 0.057814,-0.0078 0.095343,-0.03157 0.039674,-0.02576 0.058812,-0.05981 0.019139,-0.03405 0.020918,-0.08878 z"
         style="font-variant-ligatures:normal;font-variant-caps:normal;font-variant-numeric:normal;font-variant-east-asian:normal;stroke-width:0.0380228"
         id="surname_b" />
      <path
         d="m 9.494037,17.407891 -0.6501297,0.06037 -0.095429,-1.027656 0.1366524,-0.01269 0.084149,0.906177 0.5134759,-0.04768 z"
         style="font-variant-ligatures:normal;font-variant-caps:normal;font-variant-numeric:normal;font-variant-east-asian:normal;stroke-width:0.0380228"
         id="surname_l" />
      <path
         d="m 10.408033,17.221068 -0.6646879,0.143314 -0.2175194,-1.008888 0.6646873,-0.143311 0.02571,0.11925 -0.5305345,0.114387 0.059604,0.276441 0.5305335,-0.114387 0.02571,0.11925 -0.5305344,0.114388 0.080787,0.374695 0.5305344,-0.114388 z"
         style="font-variant-ligatures:normal;font-variant-caps:normal;font-variant-numeric:normal;font-variant-east-asian:normal;stroke-width:0.0380228"
         id="surname_e" />
      <path
         d="m 11.333525,16.600241 q 0.02027,0.05679 0.01331,0.121835 -0.0063,0.06481 -0.04022,0.120329 -0.03731,0.06042 -0.09878,0.108846 -0.06081,0.0482 -0.158728,0.08314 -0.105102,0.03751 -0.196308,0.04798 -0.09055,0.01023 -0.19112,0.0027 l -0.05778,-0.161904 0.0091,-0.0033 q 0.09567,0.03504 0.204169,0.03385 0.108497,-0.0011 0.193362,-0.03147 0.120117,-0.04287 0.170627,-0.111671 0.05116,-0.06904 0.02437,-0.144112 -0.02306,-0.06463 -0.066,-0.0839 -0.04228,-0.0195 -0.112969,-0.01341 -0.05362,0.0044 -0.114096,0.01643 -0.05982,0.01178 -0.128458,0.02156 -0.13904,0.01871 -0.225236,-0.02486 -0.08578,-0.04445 -0.123753,-0.150866 -0.04357,-0.122075 0.03186,-0.236576 0.07519,-0.115146 0.233816,-0.171762 0.102491,-0.03658 0.195,-0.04751 0.09251,-0.01094 0.168687,-0.0057 l 0.05451,0.152764 -0.0091,0.0033 q -0.07226,-0.0272 -0.173947,-0.0255 -0.10127,8.63e-4 -0.195934,0.03459 -0.103798,0.03704 -0.151744,0.102726 -0.04729,0.06545 -0.02307,0.133342 0.02167,0.06071 0.06535,0.08413 0.04368,0.02342 0.129195,0.01351 0.04504,-0.0058 0.126732,-0.0202 0.08169,-0.01443 0.140113,-0.01983 0.118617,-0.0099 0.194181,0.02858 0.07557,0.03853 0.112845,0.14298 z"
         style="font-variant-ligatures:normal;font-variant-caps:normal;font-variant-numeric:normal;font-variant-east-asian:normal;stroke-width:0.0380228"
         id="surname_s" />
    </g>
    <g
       id="arcs">
      <path
         d="m 13.198,4.5099 a 6.5779,7.4488 0 0 1 1.7144,5.0153 6.5779,7.4488 0 0 1 -2.5116,5.8551"
         fill="none"
         stroke="#000000"
         stroke-width="0.073398"
         id="arc_right" />
      <path
         d="M 4.2683,15.38 A 6.5779,7.4488 0 0 1 1.7565,9.5247 6.5779,7.4488 0 0 1 3.4712,4.509"
         fill="none"
         stroke="#000000"
         stroke-width="0.073398"
         id="arc_left" />
    </g>
    <path
       d="M 5.8328,4.3073 5.0419,5.06592 v 6.5465 l 1.0045,0.96596 0.90595,-0.82318 -4.138e-4,-2.3193 0.85505,0.71226 v 4.1192 l 1.0628,1.0578 0.85298,-0.75986 v -4.4511 l 0.13823,0.03766 0.1671998,0.07367 0.31619,0.16968 0.08981,0.06001 0.14982,0.185 0.14485,0.24956 0.13989,0.33482 0.09022,0.26984 0.0298,0.33978 -0.0042,0.33523 0.82028,0.80331 1.2991,-1.2553 -0.17176,-0.01325 -0.12499,-0.02028 -0.11506,-0.03477 -0.18458,-0.07988 -0.10016,-0.08981 -0.13492,-0.12002 -0.14485,-0.19493 -0.09974,-0.19741 -0.11257,-0.28226 -0.10471,-0.28722 -0.12416,-0.25618 c 0,0 -0.08639,-0.14317 -0.08815,-0.15023 -0.0018,-0.00705 -0.15189,-0.19617 -0.15189,-0.19617 l -0.10057,-0.082773 -0.07946,-0.049664 -0.09891,-0.042214 -0.10264,-0.019452 -0.09891,-0.00166 -0.11837,0.024832 -0.1254,0.04387 -0.04966,0.018624 -0.03807,0.00248 -0.02069,-0.00414 -0.0066,-0.014072 -0.0025,-0.01821 0.02152,-0.04387 0.27439,-0.40062 0.28101,-0.45898 0.24791,-0.52685 0.09146,-0.25536 0.08898,-0.30667 0.03021,-0.19203 0.01201,-0.19162 -0.0095,-0.1196 -0.12415,-0.25741 -0.2715,-0.17796 -0.48712,-0.14071 -0.72302,-0.072013 -0.7283998,0.013244 -0.50326,0.079462 -0.60921,0.18541 -0.35096,0.17713 -0.043043,0.034764 0.00455,0.76151 -0.87326,-0.7371 0.00331,-1.696 z m 5.2586,2.8532 0.04139,0.00993 0.01407,0.00662 0.02235,0.053802 0.01986,0.11919 0.0033,0.1225 -0.03311,0.11588 -0.05297,0.16886 -0.14237,0.21521 -0.19866,0.26156 -0.23176,0.26487 -0.37082,0.40724 -0.42835,0.42049 -0.00662,-1.5677 0.57569,-0.35137 0.18293,-0.098086 0.2177,-0.07284 0.16596,-0.055872 0.14444,-0.017796 z"
       fill="none"
       stroke="#000000"
       stroke-width="0.080088"
       id="int" />
  </g>
</svg>
